<svg xmlns="http://www.w3.org/2000/svg" xmlns:xlink="http://www.w3.org/1999/xlink" width="50" zoomAndPan="magnify" viewBox="0 0 37.5 30.000001" height="40" preserveAspectRatio="xMidYMid meet" version="1.0"><defs><clipPath id="47f9294395"><path d="M 0.363281 0 L 36.652344 0 L 36.652344 29.03125 L 0.363281 29.03125 Z M 0.363281 0 " clip-rule="nonzero"/></clipPath><clipPath id="c4ce3909e4"><path d="M 8 4.3125 L 15 4.3125 L 15 24.90625 L 8 24.90625 Z M 8 4.3125 " clip-rule="nonzero"/></clipPath><clipPath id="c5f28a1104"><path d="M 0.363281 9 L 14 9 L 14 12 L 0.363281 12 Z M 0.363281 9 " clip-rule="nonzero"/></clipPath><clipPath id="b2d0c0de8d"><path d="M 35 15 L 36.652344 15 L 36.652344 19 L 35 19 Z M 35 15 " clip-rule="nonzero"/></clipPath></defs><g clip-path="url(#47f9294395)"><path fill="#ffffff" d="M 0.363281 0 L 37.136719 0 L 37.136719 36.773438 L 0.363281 36.773438 Z M 0.363281 0 " fill-opacity="1" fill-rule="nonzero"/><path fill="#ffffff" d="M 0.363281 0 L 37.136719 0 L 37.136719 29.417969 L 0.363281 29.417969 Z M 0.363281 0 " fill-opacity="1" fill-rule="nonzero"/><path fill="#ffffff" d="M 0.363281 0 L 37.136719 0 L 37.136719 29.417969 L 0.363281 29.417969 Z M 0.363281 0 " fill-opacity="1" fill-rule="nonzero"/></g><path fill="#222720" d="M 12.433594 13.875 L 12.011719 15.660156 C 12 15.707031 11.992188 15.746094 11.996094 15.78125 C 11.996094 15.820312 12.003906 15.851562 12.023438 15.867188 C 12.042969 15.886719 12.066406 15.898438 12.09375 15.894531 C 12.152344 15.894531 12.21875 15.859375 12.292969 15.789062 C 12.417969 15.667969 12.539062 15.5 12.652344 15.289062 L 12.78125 15.355469 C 12.671875 15.597656 12.539062 15.789062 12.386719 15.917969 C 12.230469 16.050781 12.089844 16.121094 11.964844 16.121094 C 11.878906 16.125 11.804688 16.09375 11.746094 16.03125 C 11.683594 15.96875 11.652344 15.882812 11.652344 15.777344 C 11.648438 15.675781 11.660156 15.566406 11.691406 15.449219 L 11.976562 14.28125 C 11.980469 14.261719 11.984375 14.242188 11.980469 14.222656 C 11.980469 14.183594 11.964844 14.152344 11.925781 14.128906 C 11.878906 14.101562 11.808594 14.085938 11.714844 14.089844 L 11.566406 14.089844 L 11.609375 13.933594 Z M 12.417969 12.6875 C 12.488281 12.6875 12.546875 12.710938 12.59375 12.757812 C 12.644531 12.804688 12.667969 12.867188 12.671875 12.941406 C 12.671875 13.011719 12.648438 13.070312 12.605469 13.121094 C 12.558594 13.167969 12.5 13.195312 12.429688 13.195312 C 12.359375 13.195312 12.296875 13.175781 12.246094 13.125 C 12.195312 13.078125 12.167969 13.019531 12.167969 12.949219 C 12.167969 12.875 12.1875 12.816406 12.238281 12.765625 C 12.285156 12.714844 12.34375 12.691406 12.417969 12.6875 Z M 12.417969 12.6875 " fill-opacity="1" fill-rule="nonzero"/><path fill="#222720" d="M 14.160156 13.140625 L 14.535156 13.132812 L 14.351562 13.871094 L 14.765625 13.863281 L 14.710938 14.054688 L 14.308594 14.066406 L 13.964844 15.472656 C 13.945312 15.554688 13.9375 15.625 13.9375 15.683594 C 13.9375 15.738281 13.953125 15.78125 13.976562 15.8125 C 14 15.839844 14.03125 15.855469 14.066406 15.851562 C 14.222656 15.847656 14.40625 15.648438 14.625 15.25 L 14.75 15.320312 C 14.5 15.820312 14.230469 16.074219 13.933594 16.078125 C 13.824219 16.082031 13.734375 16.050781 13.671875 15.984375 C 13.605469 15.917969 13.570312 15.832031 13.570312 15.722656 C 13.566406 15.628906 13.578125 15.53125 13.605469 15.429688 L 13.933594 14.074219 L 13.546875 14.082031 L 13.597656 13.890625 L 13.980469 13.878906 Z M 14.160156 13.140625 " fill-opacity="1" fill-rule="nonzero"/><path fill="#222720" d="M 16.90625 15.589844 C 16.820312 15.730469 16.714844 15.839844 16.59375 15.914062 C 16.476562 15.988281 16.355469 16.023438 16.238281 16.027344 C 16.011719 16.03125 15.816406 15.953125 15.65625 15.792969 C 15.492188 15.632812 15.410156 15.425781 15.402344 15.171875 C 15.398438 14.941406 15.457031 14.714844 15.574219 14.492188 C 15.691406 14.265625 15.847656 14.089844 16.035156 13.960938 C 16.226562 13.828125 16.414062 13.761719 16.59375 13.757812 C 16.742188 13.753906 16.871094 13.792969 16.988281 13.875 C 17.101562 13.960938 17.179688 14.070312 17.222656 14.210938 L 17.347656 13.804688 L 17.707031 13.757812 L 17.242188 15.5 C 17.230469 15.550781 17.222656 15.597656 17.226562 15.644531 C 17.226562 15.6875 17.234375 15.71875 17.253906 15.742188 C 17.273438 15.761719 17.292969 15.773438 17.316406 15.773438 C 17.363281 15.773438 17.414062 15.742188 17.472656 15.675781 C 17.582031 15.554688 17.6875 15.390625 17.78125 15.1875 L 17.914062 15.242188 C 17.6875 15.746094 17.445312 16 17.195312 16.007812 C 17.113281 16.007812 17.046875 15.980469 16.988281 15.917969 C 16.933594 15.859375 16.90625 15.78125 16.90625 15.683594 Z M 16.628906 13.9375 C 16.507812 13.9375 16.386719 13.988281 16.265625 14.089844 C 16.144531 14.1875 16.039062 14.351562 15.949219 14.578125 C 15.859375 14.804688 15.820312 15.035156 15.824219 15.273438 C 15.828125 15.460938 15.871094 15.601562 15.953125 15.6875 C 16.03125 15.777344 16.144531 15.820312 16.289062 15.816406 C 16.417969 15.8125 16.535156 15.765625 16.644531 15.675781 C 16.753906 15.582031 16.859375 15.40625 16.960938 15.140625 C 17.066406 14.875 17.113281 14.644531 17.109375 14.441406 C 17.105469 14.292969 17.054688 14.171875 16.960938 14.074219 C 16.863281 13.980469 16.753906 13.933594 16.628906 13.9375 Z M 16.628906 13.9375 " fill-opacity="1" fill-rule="nonzero"/><path fill="#222720" d="M 18.882812 12.53125 L 19.730469 12.472656 L 19.015625 15.40625 C 18.988281 15.507812 18.972656 15.578125 18.976562 15.625 C 18.976562 15.667969 18.984375 15.699219 19 15.71875 C 19.015625 15.738281 19.035156 15.75 19.0625 15.746094 C 19.195312 15.746094 19.367188 15.542969 19.582031 15.148438 L 19.710938 15.210938 C 19.46875 15.710938 19.214844 15.960938 18.949219 15.96875 C 18.855469 15.96875 18.78125 15.941406 18.71875 15.878906 C 18.660156 15.816406 18.628906 15.730469 18.628906 15.621094 C 18.625 15.535156 18.644531 15.414062 18.679688 15.257812 L 19.257812 12.890625 C 19.265625 12.859375 19.269531 12.835938 19.269531 12.820312 C 19.265625 12.78125 19.25 12.753906 19.214844 12.734375 C 19.171875 12.710938 19.097656 12.699219 19.003906 12.703125 L 18.835938 12.703125 Z M 18.882812 12.53125 " fill-opacity="1" fill-rule="nonzero"/><path fill="#222720" d="M 21.335938 13.675781 L 20.914062 15.460938 C 20.902344 15.507812 20.894531 15.550781 20.894531 15.582031 C 20.898438 15.621094 20.90625 15.652344 20.925781 15.671875 C 20.945312 15.6875 20.96875 15.699219 20.996094 15.699219 C 21.054688 15.695312 21.121094 15.660156 21.195312 15.589844 C 21.320312 15.46875 21.441406 15.300781 21.554688 15.089844 L 21.683594 15.15625 C 21.574219 15.402344 21.441406 15.589844 21.289062 15.722656 C 21.132812 15.855469 20.992188 15.921875 20.867188 15.925781 C 20.78125 15.925781 20.707031 15.894531 20.648438 15.832031 C 20.585938 15.769531 20.554688 15.683594 20.554688 15.582031 C 20.550781 15.476562 20.5625 15.367188 20.59375 15.25 L 20.875 14.082031 C 20.882812 14.0625 20.886719 14.042969 20.882812 14.023438 C 20.882812 13.984375 20.867188 13.953125 20.828125 13.929688 C 20.78125 13.902344 20.710938 13.886719 20.613281 13.890625 L 20.46875 13.894531 L 20.511719 13.734375 Z M 21.320312 12.488281 C 21.390625 12.488281 21.449219 12.511719 21.496094 12.558594 C 21.546875 12.609375 21.570312 12.667969 21.574219 12.742188 C 21.574219 12.8125 21.550781 12.871094 21.507812 12.921875 C 21.460938 12.96875 21.402344 12.996094 21.332031 12.996094 C 21.261719 13 21.199219 12.976562 21.148438 12.929688 C 21.097656 12.882812 21.070312 12.820312 21.070312 12.75 C 21.070312 12.675781 21.09375 12.617188 21.140625 12.566406 C 21.1875 12.515625 21.246094 12.492188 21.320312 12.488281 Z M 21.320312 12.488281 " fill-opacity="1" fill-rule="nonzero"/><path fill="#222720" d="M 23.800781 15.433594 C 23.710938 15.578125 23.609375 15.683594 23.488281 15.757812 C 23.371094 15.832031 23.25 15.871094 23.132812 15.875 C 22.90625 15.878906 22.710938 15.800781 22.546875 15.640625 C 22.386719 15.480469 22.304688 15.269531 22.296875 15.019531 C 22.292969 14.789062 22.347656 14.558594 22.46875 14.335938 C 22.585938 14.113281 22.738281 13.9375 22.929688 13.804688 C 23.121094 13.675781 23.304688 13.605469 23.488281 13.601562 C 23.636719 13.597656 23.765625 13.640625 23.878906 13.722656 C 23.996094 13.804688 24.074219 13.917969 24.117188 14.058594 L 24.242188 13.652344 L 24.601562 13.601562 L 24.136719 15.347656 C 24.125 15.394531 24.117188 15.441406 24.121094 15.488281 C 24.121094 15.53125 24.128906 15.566406 24.148438 15.585938 C 24.167969 15.609375 24.1875 15.621094 24.210938 15.621094 C 24.257812 15.617188 24.308594 15.585938 24.367188 15.523438 C 24.476562 15.402344 24.578125 15.238281 24.675781 15.035156 L 24.808594 15.089844 C 24.578125 15.59375 24.339844 15.847656 24.089844 15.851562 C 24.007812 15.855469 23.9375 15.824219 23.882812 15.765625 C 23.828125 15.703125 23.800781 15.625 23.796875 15.527344 Z M 23.523438 13.78125 C 23.402344 13.785156 23.28125 13.835938 23.160156 13.933594 C 23.039062 14.035156 22.933594 14.195312 22.84375 14.421875 C 22.753906 14.648438 22.710938 14.882812 22.71875 15.121094 C 22.722656 15.308594 22.765625 15.445312 22.84375 15.535156 C 22.925781 15.625 23.035156 15.667969 23.179688 15.664062 C 23.308594 15.660156 23.429688 15.613281 23.539062 15.519531 C 23.644531 15.429688 23.753906 15.25 23.855469 14.988281 C 23.957031 14.722656 24.007812 14.488281 24 14.285156 C 24 14.140625 23.949219 14.019531 23.851562 13.921875 C 23.757812 13.824219 23.648438 13.777344 23.523438 13.78125 Z M 23.523438 13.78125 " fill-opacity="1" fill-rule="nonzero"/><path fill="#222720" d="M 26.339844 13.5625 L 26.160156 14.308594 C 26.488281 13.804688 26.796875 13.550781 27.09375 13.542969 C 27.207031 13.542969 27.300781 13.578125 27.375 13.652344 C 27.449219 13.726562 27.488281 13.828125 27.488281 13.960938 C 27.492188 14.070312 27.46875 14.203125 27.421875 14.355469 L 27.238281 15.128906 L 27.191406 15.324219 C 27.183594 15.367188 27.179688 15.402344 27.179688 15.433594 C 27.183594 15.464844 27.191406 15.492188 27.210938 15.515625 C 27.230469 15.539062 27.253906 15.550781 27.277344 15.550781 C 27.347656 15.546875 27.433594 15.496094 27.539062 15.394531 C 27.644531 15.289062 27.734375 15.136719 27.816406 14.933594 L 27.964844 14.976562 C 27.867188 15.230469 27.746094 15.421875 27.59375 15.554688 C 27.441406 15.6875 27.300781 15.757812 27.164062 15.757812 C 27.074219 15.761719 26.996094 15.730469 26.929688 15.664062 C 26.867188 15.597656 26.832031 15.511719 26.832031 15.410156 C 26.828125 15.320312 26.839844 15.222656 26.867188 15.117188 L 27.070312 14.289062 C 27.097656 14.195312 27.109375 14.105469 27.109375 14.019531 C 27.105469 13.949219 27.089844 13.890625 27.058594 13.847656 C 27.023438 13.808594 26.984375 13.785156 26.941406 13.789062 C 26.839844 13.789062 26.683594 13.90625 26.46875 14.132812 C 26.25 14.359375 26.089844 14.671875 25.984375 15.0625 L 25.84375 15.746094 L 25.46875 15.773438 L 25.902344 13.992188 C 25.910156 13.964844 25.914062 13.9375 25.914062 13.914062 C 25.910156 13.867188 25.894531 13.835938 25.867188 13.8125 C 25.824219 13.785156 25.769531 13.769531 25.699219 13.773438 L 25.492188 13.777344 L 25.535156 13.625 Z M 26.339844 13.5625 " fill-opacity="1" fill-rule="nonzero"/><path fill="#222720" d="M 29.746094 13.464844 C 29.980469 13.457031 30.183594 13.539062 30.351562 13.710938 C 30.519531 13.878906 30.609375 14.097656 30.613281 14.367188 C 30.621094 14.597656 30.566406 14.820312 30.453125 15.039062 C 30.339844 15.257812 30.195312 15.429688 30.015625 15.546875 C 29.832031 15.667969 29.644531 15.730469 29.445312 15.734375 C 29.210938 15.738281 29.007812 15.65625 28.835938 15.480469 C 28.664062 15.308594 28.574219 15.089844 28.566406 14.824219 C 28.5625 14.601562 28.617188 14.382812 28.730469 14.164062 C 28.847656 13.945312 28.996094 13.773438 29.179688 13.652344 C 29.363281 13.53125 29.550781 13.46875 29.746094 13.464844 Z M 29.757812 13.617188 C 29.644531 13.621094 29.527344 13.671875 29.414062 13.769531 C 29.300781 13.867188 29.195312 14.039062 29.109375 14.28125 C 29.019531 14.527344 28.976562 14.769531 28.984375 15.011719 C 28.988281 15.195312 29.03125 15.339844 29.113281 15.4375 C 29.199219 15.535156 29.304688 15.582031 29.429688 15.582031 C 29.546875 15.578125 29.664062 15.527344 29.773438 15.433594 C 29.886719 15.335938 29.988281 15.160156 30.078125 14.910156 C 30.167969 14.65625 30.210938 14.414062 30.207031 14.171875 C 30.203125 13.996094 30.15625 13.855469 30.074219 13.757812 C 29.988281 13.664062 29.882812 13.613281 29.757812 13.617188 Z M 29.757812 13.617188 " fill-opacity="1" fill-rule="nonzero"/><path fill="#41873f" d="M 15.972656 10.476562 L 15.722656 10.457031 L 15.941406 7.933594 L 16.191406 7.953125 Z M 15.972656 10.476562 " fill-opacity="1" fill-rule="nonzero"/><path fill="#41873f" d="M 18.1875 9.949219 C 18.167969 10.167969 18.082031 10.34375 17.929688 10.46875 C 17.777344 10.597656 17.589844 10.652344 17.367188 10.632812 C 17.332031 10.628906 17.300781 10.621094 17.269531 10.613281 L 17.292969 10.355469 C 17.320312 10.367188 17.351562 10.378906 17.390625 10.378906 C 17.535156 10.394531 17.660156 10.355469 17.765625 10.273438 C 17.867188 10.1875 17.925781 10.070312 17.9375 9.925781 C 17.949219 9.808594 17.914062 9.683594 17.832031 9.554688 C 17.757812 9.4375 17.683594 9.320312 17.609375 9.203125 C 17.527344 9.058594 17.496094 8.910156 17.507812 8.753906 C 17.527344 8.539062 17.613281 8.375 17.765625 8.253906 C 17.914062 8.136719 18.101562 8.085938 18.320312 8.101562 L 18.296875 8.347656 C 18.152344 8.335938 18.03125 8.367188 17.929688 8.445312 C 17.828125 8.523438 17.769531 8.632812 17.757812 8.777344 C 17.75 8.886719 17.785156 9.007812 17.863281 9.140625 C 17.9375 9.257812 18.015625 9.375 18.09375 9.496094 C 18.167969 9.640625 18.203125 9.792969 18.1875 9.949219 Z M 18.1875 9.949219 " fill-opacity="1" fill-rule="nonzero"/><path fill="#41873f" d="M 20.683594 8.59375 L 20.128906 8.542969 L 19.929688 10.816406 L 19.679688 10.796875 L 19.878906 8.523438 L 19.328125 8.476562 L 19.351562 8.226562 L 20.703125 8.34375 Z M 20.683594 8.59375 " fill-opacity="1" fill-rule="nonzero"/><path fill="#41873f" d="M 21.929688 10.988281 L 21.679688 10.96875 L 21.902344 8.445312 L 22.152344 8.464844 Z M 21.929688 10.988281 " fill-opacity="1" fill-rule="nonzero"/><path fill="#41873f" d="M 24.671875 8.933594 L 24.117188 8.886719 L 23.917969 11.160156 L 23.667969 11.136719 L 23.867188 8.867188 L 23.316406 8.816406 L 23.339844 8.566406 L 24.695312 8.683594 Z M 24.671875 8.933594 " fill-opacity="1" fill-rule="nonzero"/><path fill="#41873f" d="M 27.074219 10.792969 C 27.054688 10.976562 26.976562 11.128906 26.832031 11.246094 C 26.6875 11.363281 26.523438 11.417969 26.335938 11.402344 C 26.152344 11.386719 26 11.304688 25.878906 11.164062 C 25.757812 11.023438 25.707031 10.859375 25.722656 10.675781 L 25.886719 8.785156 L 26.136719 8.808594 L 25.972656 10.695312 C 25.960938 10.808594 25.996094 10.914062 26.070312 11 C 26.144531 11.089844 26.242188 11.140625 26.359375 11.152344 C 26.476562 11.160156 26.582031 11.128906 26.671875 11.054688 C 26.761719 10.976562 26.8125 10.882812 26.824219 10.769531 L 26.988281 8.882812 L 27.238281 8.902344 Z M 27.074219 10.792969 " fill-opacity="1" fill-rule="nonzero"/><path fill="#41873f" d="M 29.757812 9.371094 L 29.207031 9.324219 L 29.007812 11.597656 L 28.757812 11.574219 L 28.957031 9.300781 L 28.40625 9.253906 L 28.425781 9.003906 L 29.78125 9.121094 Z M 29.757812 9.371094 " fill-opacity="1" fill-rule="nonzero"/><path fill="#41873f" d="M 33.324219 10.695312 C 33.292969 11.058594 33.136719 11.355469 32.855469 11.589844 C 32.570312 11.824219 32.246094 11.925781 31.878906 11.894531 C 31.515625 11.863281 31.210938 11.707031 30.976562 11.429688 C 30.742188 11.148438 30.640625 10.832031 30.671875 10.46875 C 30.703125 10.105469 30.859375 9.808594 31.140625 9.574219 C 31.421875 9.339844 31.742188 9.238281 32.109375 9.269531 C 32.476562 9.300781 32.78125 9.453125 33.015625 9.734375 C 33.253906 10.011719 33.355469 10.332031 33.324219 10.695312 Z M 33.058594 10.675781 C 33.085938 10.382812 33.003906 10.125 32.8125 9.898438 C 32.625 9.675781 32.382812 9.550781 32.085938 9.527344 C 31.796875 9.5 31.535156 9.582031 31.308594 9.769531 C 31.082031 9.960938 30.957031 10.199219 30.933594 10.492188 C 30.90625 10.78125 30.988281 11.039062 31.179688 11.261719 C 31.371094 11.488281 31.609375 11.613281 31.902344 11.636719 C 32.199219 11.660156 32.457031 11.582031 32.683594 11.390625 C 32.910156 11.203125 33.035156 10.964844 33.058594 10.675781 Z M 33.058594 10.675781 " fill-opacity="1" fill-rule="nonzero"/><g clip-path="url(#c4ce3909e4)"><path fill="#be1e2d" d="M 13.523438 24.535156 C 13.523438 24.535156 9.070312 21.550781 8.949219 15.757812 C 8.863281 11.722656 10.339844 7.484375 13.089844 4.632812 L 14.050781 5.542969 C 11.40625 8.289062 9.804688 11.597656 9.730469 15.222656 C 9.652344 18.84375 11 22.148438 13.523438 24.535156 Z M 13.523438 24.535156 " fill-opacity="1" fill-rule="nonzero"/></g><g clip-path="url(#c5f28a1104)"><path fill="#41873f" d="M 0.691406 9.933594 L 13.046875 10.457031 L 0.699219 11.441406 Z M 0.691406 9.933594 " fill-opacity="1" fill-rule="nonzero"/></g><path fill="#222720" d="M 3.105469 13.367188 C 3.105469 13.484375 3.0625 13.582031 2.980469 13.664062 C 2.894531 13.75 2.792969 13.789062 2.675781 13.789062 C 2.558594 13.789062 2.457031 13.75 2.375 13.664062 C 2.289062 13.582031 2.25 13.484375 2.25 13.367188 C 2.25 13.25 2.289062 13.148438 2.375 13.066406 C 2.457031 12.984375 2.558594 12.941406 2.675781 12.941406 C 2.792969 12.941406 2.894531 12.984375 2.980469 13.066406 C 3.0625 13.148438 3.105469 13.25 3.105469 13.367188 Z M 3.105469 13.367188 " fill-opacity="1" fill-rule="nonzero"/><path fill="#222720" d="M 5.222656 13.324219 C 5.222656 13.441406 5.179688 13.542969 5.097656 13.625 C 5.015625 13.707031 4.914062 13.75 4.796875 13.75 C 4.675781 13.75 4.578125 13.707031 4.492188 13.625 C 4.410156 13.542969 4.367188 13.441406 4.367188 13.324219 C 4.367188 13.207031 4.410156 13.109375 4.492188 13.023438 C 4.578125 12.941406 4.675781 12.902344 4.796875 12.902344 C 4.914062 12.902344 5.015625 12.941406 5.097656 13.023438 C 5.179688 13.109375 5.222656 13.207031 5.222656 13.324219 Z M 5.222656 13.324219 " fill-opacity="1" fill-rule="nonzero"/><path fill="#222720" d="M 7.289062 13.289062 C 7.289062 13.40625 7.246094 13.507812 7.164062 13.589844 C 7.082031 13.671875 6.980469 13.714844 6.863281 13.714844 C 6.742188 13.714844 6.640625 13.671875 6.558594 13.589844 C 6.476562 13.507812 6.433594 13.40625 6.433594 13.289062 C 6.433594 13.175781 6.476562 13.074219 6.558594 12.992188 C 6.640625 12.910156 6.742188 12.867188 6.863281 12.867188 C 6.980469 12.867188 7.082031 12.910156 7.164062 12.992188 C 7.246094 13.074219 7.289062 13.175781 7.289062 13.289062 Z M 7.289062 13.289062 " fill-opacity="1" fill-rule="nonzero"/><path fill="#222720" d="M 3.113281 15.046875 C 3.113281 15.164062 3.070312 15.265625 2.988281 15.347656 C 2.902344 15.429688 2.800781 15.472656 2.683594 15.472656 C 2.566406 15.472656 2.464844 15.429688 2.382812 15.347656 C 2.296875 15.265625 2.257812 15.164062 2.257812 15.046875 C 2.257812 14.929688 2.296875 14.832031 2.382812 14.75 C 2.464844 14.664062 2.566406 14.625 2.683594 14.625 C 2.800781 14.625 2.902344 14.664062 2.988281 14.75 C 3.070312 14.832031 3.113281 14.929688 3.113281 15.046875 Z M 3.113281 15.046875 " fill-opacity="1" fill-rule="nonzero"/><path fill="#222720" d="M 5.230469 15.007812 C 5.230469 15.125 5.1875 15.222656 5.105469 15.308594 C 5.023438 15.390625 4.921875 15.429688 4.804688 15.429688 C 4.683594 15.429688 4.582031 15.390625 4.5 15.308594 C 4.417969 15.222656 4.375 15.125 4.375 15.007812 C 4.375 14.890625 4.417969 14.789062 4.5 14.707031 C 4.582031 14.625 4.683594 14.582031 4.804688 14.582031 C 4.921875 14.582031 5.023438 14.625 5.105469 14.707031 C 5.1875 14.789062 5.230469 14.890625 5.230469 15.007812 Z M 5.230469 15.007812 " fill-opacity="1" fill-rule="nonzero"/><path fill="#222720" d="M 7.296875 14.972656 C 7.296875 15.089844 7.253906 15.191406 7.171875 15.273438 C 7.089844 15.355469 6.988281 15.398438 6.867188 15.398438 C 6.75 15.398438 6.648438 15.355469 6.566406 15.273438 C 6.484375 15.191406 6.441406 15.089844 6.441406 14.972656 C 6.441406 14.855469 6.484375 14.757812 6.566406 14.671875 C 6.648438 14.589844 6.75 14.550781 6.867188 14.550781 C 6.988281 14.550781 7.089844 14.589844 7.171875 14.671875 C 7.253906 14.757812 7.296875 14.855469 7.296875 14.972656 Z M 7.296875 14.972656 " fill-opacity="1" fill-rule="nonzero"/><path fill="#222720" d="M 3.035156 17.132812 C 3.195312 16.957031 3.179688 16.691406 3.007812 16.53125 C 2.832031 16.375 2.558594 16.390625 2.402344 16.5625 C 2.242188 16.734375 2.257812 17.003906 2.429688 17.160156 C 2.605469 17.320312 2.875 17.304688 3.035156 17.132812 Z M 3.035156 17.132812 " fill-opacity="1" fill-rule="nonzero"/><path fill="#222720" d="M 5.265625 16.804688 C 5.265625 16.921875 5.222656 17.023438 5.140625 17.105469 C 5.054688 17.1875 4.957031 17.230469 4.835938 17.230469 C 4.71875 17.230469 4.617188 17.1875 4.535156 17.105469 C 4.449219 17.023438 4.410156 16.921875 4.410156 16.804688 C 4.410156 16.6875 4.449219 16.589844 4.535156 16.507812 C 4.617188 16.421875 4.71875 16.382812 4.835938 16.382812 C 4.957031 16.382812 5.054688 16.421875 5.140625 16.507812 C 5.222656 16.589844 5.265625 16.6875 5.265625 16.804688 Z M 5.265625 16.804688 " fill-opacity="1" fill-rule="nonzero"/><path fill="#222720" d="M 7.332031 16.773438 C 7.332031 16.890625 7.289062 16.988281 7.207031 17.070312 C 7.121094 17.15625 7.023438 17.195312 6.902344 17.195312 C 6.785156 17.195312 6.683594 17.15625 6.601562 17.070312 C 6.515625 16.988281 6.476562 16.890625 6.476562 16.773438 C 6.476562 16.65625 6.515625 16.554688 6.601562 16.472656 C 6.683594 16.390625 6.785156 16.347656 6.902344 16.347656 C 7.023438 16.347656 7.121094 16.390625 7.207031 16.472656 C 7.289062 16.554688 7.332031 16.65625 7.332031 16.773438 Z M 7.332031 16.773438 " fill-opacity="1" fill-rule="nonzero"/><path fill="#d13239" d="M 15.546875 20.636719 C 15.578125 20.863281 15.523438 21.066406 15.386719 21.25 C 15.246094 21.429688 15.066406 21.539062 14.839844 21.570312 L 14.582031 21.605469 L 14.351562 19.972656 L 14.605469 19.9375 C 14.832031 19.90625 15.035156 19.957031 15.21875 20.09375 C 15.40625 20.230469 15.511719 20.414062 15.546875 20.636719 Z M 15.382812 20.660156 C 15.359375 20.480469 15.269531 20.335938 15.121094 20.226562 C 14.972656 20.117188 14.808594 20.074219 14.625 20.097656 L 14.535156 20.113281 L 14.722656 21.421875 L 14.8125 21.40625 C 14.996094 21.382812 15.144531 21.296875 15.253906 21.148438 C 15.367188 21.003906 15.410156 20.839844 15.382812 20.660156 Z M 15.382812 20.660156 " fill-opacity="1" fill-rule="nonzero"/><path fill="#d13239" d="M 16.664062 21.3125 L 16.5 21.335938 L 16.269531 19.703125 L 16.429688 19.679688 Z M 16.664062 21.3125 " fill-opacity="1" fill-rule="nonzero"/><path fill="#d13239" d="M 21.488281 20.296875 C 21.269531 20.589844 20.976562 20.757812 20.613281 20.808594 C 20.246094 20.859375 19.917969 20.777344 19.625 20.558594 C 19.332031 20.339844 19.160156 20.050781 19.109375 19.691406 C 19.058594 19.332031 19.140625 19.003906 19.359375 18.714844 C 19.582031 18.421875 19.875 18.25 20.238281 18.199219 C 20.601562 18.148438 20.929688 18.234375 21.222656 18.453125 L 21.070312 18.65625 C 20.832031 18.480469 20.566406 18.414062 20.273438 18.457031 C 19.984375 18.496094 19.75 18.632812 19.570312 18.867188 C 19.394531 19.101562 19.328125 19.363281 19.367188 19.65625 C 19.410156 19.945312 19.546875 20.175781 19.785156 20.351562 C 20.019531 20.527344 20.285156 20.59375 20.574219 20.554688 C 20.867188 20.511719 21.105469 20.375 21.28125 20.140625 Z M 21.488281 20.296875 " fill-opacity="1" fill-rule="nonzero"/><path fill="#d13239" d="M 23.96875 19.644531 C 23.996094 19.824219 23.953125 19.992188 23.839844 20.140625 C 23.726562 20.289062 23.578125 20.375 23.390625 20.398438 C 23.207031 20.425781 23.039062 20.382812 22.890625 20.273438 C 22.742188 20.160156 22.65625 20.015625 22.628906 19.832031 L 22.359375 17.953125 L 22.605469 17.917969 L 22.875 19.792969 C 22.890625 19.910156 22.945312 20 23.039062 20.070312 C 23.132812 20.140625 23.238281 20.167969 23.355469 20.152344 C 23.472656 20.136719 23.566406 20.082031 23.640625 19.988281 C 23.710938 19.894531 23.738281 19.789062 23.722656 19.675781 L 23.453125 17.800781 L 23.699219 17.765625 Z M 23.96875 19.644531 " fill-opacity="1" fill-rule="nonzero"/><path fill="#d13239" d="M 26.636719 19.910156 L 25.539062 20.066406 L 25.179688 17.558594 L 25.425781 17.523438 L 25.75 19.78125 L 26.601562 19.660156 Z M 26.636719 19.910156 " fill-opacity="1" fill-rule="nonzero"/><path fill="#d13239" d="M 28.542969 17.335938 L 27.992188 17.414062 L 28.316406 19.675781 L 28.070312 19.707031 L 27.746094 17.449219 L 27.199219 17.527344 L 27.164062 17.277344 L 28.507812 17.089844 Z M 28.542969 17.335938 " fill-opacity="1" fill-rule="nonzero"/><path fill="#d13239" d="M 31.304688 18.609375 C 31.332031 18.792969 31.289062 18.960938 31.175781 19.109375 C 31.0625 19.253906 30.914062 19.34375 30.726562 19.367188 C 30.542969 19.394531 30.375 19.351562 30.226562 19.242188 C 30.078125 19.128906 29.992188 18.984375 29.964844 18.800781 L 29.695312 16.921875 L 29.941406 16.886719 L 30.210938 18.761719 C 30.226562 18.875 30.28125 18.96875 30.375 19.039062 C 30.46875 19.109375 30.574219 19.136719 30.691406 19.121094 C 30.808594 19.101562 30.902344 19.046875 30.976562 18.957031 C 31.046875 18.863281 31.074219 18.757812 31.058594 18.644531 L 30.789062 16.769531 L 31.035156 16.734375 Z M 31.304688 18.609375 " fill-opacity="1" fill-rule="nonzero"/><path fill="#d13239" d="M 34.15625 18.851562 L 33.820312 18.898438 L 33.011719 18.226562 L 33.121094 19 L 32.875 19.03125 L 32.515625 16.523438 L 32.902344 16.46875 C 33.144531 16.4375 33.363281 16.492188 33.558594 16.640625 C 33.753906 16.785156 33.871094 16.976562 33.902344 17.21875 C 33.933594 17.421875 33.894531 17.613281 33.789062 17.789062 C 33.683594 17.96875 33.535156 18.089844 33.335938 18.164062 Z M 33.65625 17.25 C 33.632812 17.078125 33.546875 16.941406 33.410156 16.835938 C 33.269531 16.734375 33.113281 16.695312 32.9375 16.71875 L 32.796875 16.738281 L 32.976562 17.976562 L 33.113281 17.957031 C 33.289062 17.933594 33.425781 17.851562 33.535156 17.710938 C 33.640625 17.574219 33.679688 17.417969 33.65625 17.25 Z M 33.65625 17.25 " fill-opacity="1" fill-rule="nonzero"/><g clip-path="url(#b2d0c0de8d)"><path fill="#d13239" d="M 37.125 18.433594 L 36.855469 18.472656 L 36.667969 18.128906 L 35.480469 18.296875 L 35.390625 18.679688 L 35.121094 18.71875 L 35.753906 15.992188 Z M 36.554688 17.9375 L 35.847656 16.664062 L 35.523438 18.082031 Z M 36.554688 17.9375 " fill-opacity="1" fill-rule="nonzero"/></g></svg>